<svg width="26" height="24" viewBox="0 0 26 24" fill="none" xmlns="http://www.w3.org/2000/svg">
<path d="M25.4998 9.08747C25.4209 8.85883 25.2773 8.658 25.0865 8.50935C24.8957 8.36069 24.6658 8.27059 24.4248 8.24997L17.3123 7.21247L14.1248 0.749968C14.0225 0.538629 13.8627 0.360395 13.6637 0.235685C13.4647 0.110974 13.2347 0.0448303 12.9998 0.0448303C12.765 0.0448303 12.535 0.110974 12.336 0.235685C12.137 0.360395 11.9772 0.538629 11.8748 0.749968L8.68735 7.19997L1.57485 8.24997C1.3435 8.28285 1.126 8.37992 0.947037 8.53017C0.76807 8.68041 0.6348 8.87781 0.56235 9.09997C0.496031 9.31706 0.49008 9.54812 0.545134 9.76833C0.600189 9.98855 0.714172 10.1896 0.87485 10.35L6.03735 15.35L4.78735 22.45C4.73688 22.6855 4.75554 22.9306 4.84108 23.1558C4.92662 23.3809 5.0754 23.5766 5.26951 23.7192C5.46363 23.8618 5.69481 23.9453 5.93526 23.9597C6.17571 23.974 6.41517 23.9185 6.62485 23.8L12.9998 20.4625L19.3748 23.8C19.5503 23.8989 19.7484 23.9506 19.9498 23.95C20.2146 23.9509 20.4729 23.8678 20.6873 23.7125C20.8813 23.5735 21.0314 23.382 21.12 23.1605C21.2086 22.939 21.232 22.6968 21.1873 22.4625L19.9373 15.3625L25.0998 10.3625C25.2803 10.2096 25.4137 10.0086 25.4845 9.7829C25.5553 9.55721 25.5606 9.31606 25.4998 9.08747ZM17.8123 14.0875C17.6677 14.228 17.5591 14.4014 17.496 14.593C17.4329 14.7845 17.417 14.9885 17.4498 15.1875L18.3498 20.4375L13.6498 17.9375C13.4672 17.8471 13.2661 17.8001 13.0623 17.8001C12.8586 17.8001 12.6575 17.8471 12.4748 17.9375L7.77485 20.4375L8.67485 15.1875C8.70765 14.9885 8.69181 14.7845 8.62868 14.593C8.56556 14.4014 8.45703 14.228 8.31235 14.0875L4.56235 10.3375L9.82485 9.57497C10.0273 9.5468 10.2198 9.46939 10.3855 9.34953C10.5511 9.22967 10.6848 9.07102 10.7748 8.88747L12.9998 4.12497L15.3498 8.89997C15.4399 9.08352 15.5736 9.24217 15.7392 9.36203C15.9049 9.4819 16.0974 9.5593 16.2998 9.58747L21.5623 10.35L17.8123 14.0875Z" fill="#F2B236"/>
</svg>
