<svg width="39" height="39" viewBox="0 0 39 39" fill="none" xmlns="http://www.w3.org/2000/svg">
<path d="M19.6073 10.5216C17.8103 10.5216 16.0537 11.0544 14.5595 12.0528C13.0654 13.0511 11.9009 14.4701 11.2132 16.1303C10.5255 17.7905 10.3456 19.6174 10.6961 21.3798C11.0467 23.1423 11.9121 24.7612 13.1827 26.0319C14.4534 27.3025 16.0723 28.1678 17.8347 28.5184C19.5972 28.869 21.424 28.6891 23.0842 28.0014C24.7444 27.3137 26.1634 26.1492 27.1618 24.655C28.1601 23.1609 28.693 21.4043 28.693 19.6073C28.6903 17.1984 27.7322 14.889 26.0289 13.1857C24.3256 11.4824 22.0161 10.5243 19.6073 10.5216ZM19.6073 25.6644C18.4093 25.6644 17.2382 25.3092 16.2421 24.6436C15.246 23.978 14.4697 23.032 14.0112 21.9253C13.5528 20.8185 13.4328 19.6006 13.6665 18.4256C13.9002 17.2506 14.4771 16.1713 15.3242 15.3242C16.1713 14.4771 17.2506 13.9002 18.4256 13.6665C19.6006 13.4328 20.8185 13.5528 21.9253 14.0112C23.032 14.4697 23.978 15.246 24.6436 16.2421C25.3092 17.2382 25.6644 18.4093 25.6644 19.6073C25.6626 21.2132 25.0239 22.7528 23.8883 23.8883C22.7528 25.0239 21.2132 25.6626 19.6073 25.6644ZM27.9359 0.678711H11.2787C8.4684 0.681917 5.77411 1.79973 3.78692 3.78692C1.79973 5.77411 0.681917 8.4684 0.678711 11.2787V27.9359C0.681917 30.7462 1.79973 33.4405 3.78692 35.4276C5.77411 37.4148 8.4684 38.5326 11.2787 38.5359H27.9359C30.7462 38.5326 33.4405 37.4148 35.4276 35.4276C37.4148 33.4405 38.5326 30.7462 38.5359 27.9359V11.2787C38.5326 8.4684 37.4148 5.77411 35.4276 3.78692C33.4405 1.79973 30.7462 0.681917 27.9359 0.678711ZM35.5073 27.9359C35.505 29.9432 34.7066 31.8677 33.2872 33.2872C31.8677 34.7066 29.9432 35.505 27.9359 35.5073H11.2787C9.27134 35.505 7.34682 34.7066 5.92739 33.2872C4.50796 31.8677 3.70954 29.9432 3.70728 27.9359V11.2787C3.70954 9.27134 4.50796 7.34682 5.92739 5.92739C7.34682 4.50796 9.27134 3.70954 11.2787 3.70728H27.9359C29.9432 3.70954 31.8677 4.50796 33.2872 5.92739C34.7066 7.34682 35.505 9.27134 35.5073 11.2787V27.9359ZM31.7216 9.76443C31.7216 10.2137 31.5884 10.6528 31.3388 11.0264C31.0892 11.3999 30.7344 11.691 30.3194 11.863C29.9043 12.0349 29.4476 12.0799 29.007 11.9922C28.5664 11.9046 28.1617 11.6882 27.844 11.3706C27.5263 11.0529 27.31 10.6482 27.2224 10.2076C27.1347 9.76695 27.1797 9.31024 27.3516 8.89519C27.5235 8.48014 27.8147 8.12539 28.1882 7.8758C28.5617 7.62621 29.0009 7.493 29.4501 7.493C30.0526 7.493 30.6303 7.73231 31.0563 8.15828C31.4823 8.58426 31.7216 9.16201 31.7216 9.76443Z" fill="white"/>
</svg>
