<svg width="38" height="39" viewBox="0 0 38 39" fill="none" xmlns="http://www.w3.org/2000/svg">
<g clip-path="url(#clip0_134_704)">
<path d="M18.0874 0.630997C15.0493 0.667671 8.51779 1.16691 4.86458 4.51845C2.14714 7.21104 1.19835 11.192 1.08714 16.1146C0.994866 21.0194 0.883661 30.2306 9.76234 32.7386V36.5586C9.76234 36.5586 9.70674 38.0871 10.7171 38.4006C11.9616 38.7946 12.6702 37.6186 13.8533 36.3551L16.0596 33.8601C22.1345 34.3653 26.7874 33.2012 27.3233 33.0284C28.556 32.6345 35.4993 31.7472 36.6338 22.5349C37.7979 13.0209 36.0671 7.02649 32.9427 4.31497H32.9238C31.9809 3.44662 28.1917 0.685417 19.7259 0.654658C19.7259 0.654658 19.0977 0.612068 18.0874 0.629814V0.630997ZM18.1915 3.30584C19.0539 3.29993 19.578 3.3366 19.578 3.3366C26.7436 3.35553 30.1638 5.5122 30.9706 6.23859C33.6017 8.49345 34.9575 13.8976 33.9649 21.8405C33.022 29.542 27.3908 30.0294 26.3485 30.3619C25.9049 30.5038 21.8068 31.5141 16.6441 31.1817C16.6441 31.1817 12.7992 35.8216 11.5972 37.0164C11.4068 37.2258 11.1844 37.2874 11.0424 37.2566C10.8389 37.2069 10.7774 36.9549 10.7892 36.6095L10.8259 30.2696C3.29587 28.1875 3.73951 20.3309 3.81996 16.227C3.91223 12.123 4.68239 8.76555 6.97511 6.49176C10.0617 3.70097 15.6077 3.32477 18.1891 3.30584H18.1915ZM18.7593 7.40861C18.6974 7.40798 18.6359 7.41963 18.5784 7.44288C18.521 7.46613 18.4687 7.50052 18.4246 7.54407C18.3805 7.58762 18.3454 7.63947 18.3215 7.69662C18.2975 7.75378 18.2851 7.81511 18.2849 7.87709C18.2849 8.14209 18.5002 8.35149 18.7593 8.35149C19.9323 8.32918 21.0981 8.53932 22.1895 8.96977C23.2809 9.40023 24.2762 10.0425 25.1181 10.8595C26.8371 12.5288 27.6747 14.7718 27.7066 17.7046C27.7066 17.9637 27.916 18.179 28.181 18.179V18.16C28.3059 18.1604 28.4259 18.1113 28.5147 18.0235C28.6036 17.9358 28.6542 17.8164 28.6554 17.6916C28.7129 16.3111 28.489 14.9334 27.9975 13.6422C27.5059 12.351 26.7569 11.1732 25.796 10.1805C23.9233 8.35031 21.5501 7.40743 18.7593 7.40743V7.40861ZM12.5236 8.49345C12.1887 8.44453 11.8472 8.51174 11.5558 8.68392H11.531C10.8546 9.0804 10.2453 9.58152 9.72567 10.1686C9.29386 10.6679 9.05962 11.173 8.9981 11.6593C8.96143 11.9491 8.98627 12.2389 9.07263 12.5158L9.10339 12.5347C9.58962 13.9638 10.2249 15.3385 11.001 16.6327C12.0007 18.451 13.2309 20.1326 14.6613 21.6358L14.7039 21.6973L14.7713 21.747L14.8139 21.7967L14.8636 21.8393C16.3722 23.2738 18.0579 24.5098 19.8797 25.5173C21.9618 26.6507 23.2253 27.1866 23.9836 27.409V27.4208C24.206 27.4883 24.4083 27.519 24.6118 27.519C25.2581 27.4717 25.8699 27.2093 26.3497 26.7737C26.9341 26.254 27.4297 25.6422 27.8167 24.9625V24.9507C28.1798 24.2669 28.0568 23.6197 27.5327 23.182C26.4831 22.2646 25.3482 21.4497 24.1433 20.7485C23.3365 20.3108 22.5167 20.5758 22.1842 21.0194L21.4756 21.9126C21.1124 22.3563 20.4523 22.2947 20.4523 22.2947L20.4333 22.3066C15.5107 21.049 14.1975 16.0649 14.1975 16.0649C14.1975 16.0649 14.136 15.387 14.5915 15.0416L15.4788 14.327C15.9035 13.9816 16.1992 13.1629 15.7438 12.3549C15.0474 11.1484 14.2343 10.0131 13.3162 8.96548C13.1155 8.7185 12.8339 8.55046 12.5212 8.49109L12.5236 8.49345ZM19.578 9.8989C18.9498 9.8989 18.9498 10.8477 19.5839 10.8477C20.365 10.8604 21.136 11.0268 21.8528 11.3376C22.5696 11.6484 23.218 12.0974 23.7612 12.6589C24.2567 13.2055 24.6374 13.846 24.8809 14.5424C25.1243 15.2388 25.2255 15.977 25.1785 16.7132C25.1806 16.8378 25.2315 16.9566 25.3202 17.0441C25.4088 17.1317 25.5283 17.1811 25.6529 17.1817L25.6718 17.2065C25.7973 17.2056 25.9175 17.1553 26.0062 17.0665C26.095 16.9778 26.1453 16.8576 26.1462 16.7321C26.1888 14.8523 25.6044 13.2753 24.458 12.0118C23.3057 10.7483 21.698 10.0397 19.6454 9.8989H19.578ZM20.3552 12.4495C19.7081 12.4306 19.6833 13.3983 20.3245 13.4172C21.8837 13.4977 22.6409 14.2856 22.7402 15.9064C22.7424 16.0294 22.7926 16.1467 22.8802 16.2331C22.9678 16.3196 23.0857 16.3683 23.2087 16.3689H23.2277C23.2909 16.3662 23.353 16.3509 23.4103 16.324C23.4676 16.297 23.5189 16.2589 23.5613 16.2119C23.6037 16.1648 23.6363 16.1098 23.6572 16.0501C23.6782 15.9903 23.687 15.927 23.6831 15.8638C23.5719 13.7509 22.4196 12.5607 20.3742 12.4507H20.3552V12.4495Z" fill="white"/>
</g>
<defs>
<clipPath id="clip0_134_704">
<rect width="37.8571" height="37.8571" fill="white" transform="translate(0.107422 0.625)"/>
</clipPath>
</defs>
</svg>
