<svg width="37" height="39" viewBox="0 0 37 39" fill="none" xmlns="http://www.w3.org/2000/svg">
<path fill-rule="evenodd" clip-rule="evenodd" d="M31.5635 6.18096C29.9047 4.43164 27.9309 3.04456 25.7567 2.10008C23.5825 1.1556 21.251 0.672504 18.8973 0.678771C9.02755 0.678771 0.992946 9.09401 0.988957 19.438C0.988957 22.744 1.81276 25.9705 3.37859 28.8166L0.839355 38.5359L10.3321 35.9258C12.9579 37.4233 15.8996 38.2085 18.8893 38.2099H18.8973C28.765 38.2099 36.7996 29.7946 36.8036 19.4506C36.8103 16.9857 36.3507 14.5439 35.4513 12.2663C34.5519 9.98867 33.2305 7.92037 31.5635 6.18096ZM18.8973 35.044H18.8913C16.2254 35.0443 13.6086 34.2928 11.3155 32.8686L10.7729 32.53L5.1399 34.0785L6.6419 28.3256L6.28884 27.7363C4.79839 25.2504 4.00938 22.3736 4.0129 19.438C4.01689 10.841 10.6931 3.84676 18.9032 3.84676C20.8585 3.84221 22.7953 4.24398 24.6014 5.02881C26.4075 5.81364 28.047 6.96594 29.4252 8.41904C30.8108 9.8652 31.909 11.5847 32.6564 13.4782C33.4038 15.3717 33.7856 17.4016 33.7796 19.4506C33.7756 28.0476 27.0994 35.044 18.8973 35.044ZM27.0615 23.3646C26.6127 23.1285 24.4146 21.9958 24.0037 21.8391C23.5947 21.6824 23.2975 21.6051 22.9983 22.0732C22.6991 22.5413 21.8414 23.5966 21.5801 23.91C21.3188 24.2235 21.0575 24.2611 20.6107 24.027C20.1639 23.793 18.7217 23.2977 17.0123 21.7012C15.6818 20.4578 14.7842 18.924 14.5229 18.4538C14.2616 17.9836 14.495 17.7308 14.7204 17.4967C14.9218 17.2877 15.1672 16.9492 15.3906 16.6755C15.614 16.4017 15.6878 16.2074 15.8374 15.8939C15.987 15.5805 15.9132 15.3067 15.7995 15.0727C15.6878 14.8365 14.7922 12.5295 14.4192 11.5912C14.0581 10.6822 13.6891 10.8034 13.4139 10.7909C13.1288 10.7786 12.8435 10.7731 12.5581 10.7741C12.3313 10.7802 12.108 10.8353 11.9024 10.936C11.6968 11.0367 11.5133 11.1808 11.3633 11.3593C10.9524 11.8294 9.7975 12.9621 9.7975 15.2691C9.7975 17.5761 11.4012 19.8058 11.6246 20.1193C11.848 20.4327 14.7802 25.1659 19.2683 27.1971C20.3374 27.6798 21.1712 27.9682 21.8195 28.1856C22.8906 28.5429 23.866 28.4907 24.638 28.3715C25.4977 28.2378 27.2849 27.2389 27.6579 26.1439C28.0309 25.0489 28.0309 24.1106 27.9192 23.9142C27.8075 23.7178 27.5063 23.5986 27.0615 23.3646Z" fill="white"/>
</svg>
